<svg width="59" height="59" viewBox="0 0 59 59" fill="none" xmlns="http://www.w3.org/2000/svg">
<path d="M53.1 0H5.9C2.655 0 0.0295 2.655 0.0295 5.9L0 59L11.8 47.2H53.1C56.345 47.2 59 44.545 59 41.3V5.9C59 2.655 56.345 0 53.1 0ZM44.25 35.4H14.75C13.1275 35.4 11.8 34.0725 11.8 32.45C11.8 30.8275 13.1275 29.5 14.75 29.5H44.25C45.8725 29.5 47.2 30.8275 47.2 32.45C47.2 34.0725 45.8725 35.4 44.25 35.4ZM44.25 26.55H14.75C13.1275 26.55 11.8 25.2225 11.8 23.6C11.8 21.9775 13.1275 20.65 14.75 20.65H44.25C45.8725 20.65 47.2 21.9775 47.2 23.6C47.2 25.2225 45.8725 26.55 44.25 26.55ZM44.25 17.7H14.75C13.1275 17.7 11.8 16.3725 11.8 14.75C11.8 13.1275 13.1275 11.8 14.75 11.8H44.25C45.8725 11.8 47.2 13.1275 47.2 14.75C47.2 16.3725 45.8725 17.7 44.25 17.7Z" fill="white"/>
</svg>
