<svg width="75" height="75" viewBox="0 0 75 75" fill="none" xmlns="http://www.w3.org/2000/svg">
<path d="M52.6449 24.2902C55.7801 27.9651 57.4889 32.6451 57.4592 37.4756C57.4295 42.3061 55.6633 46.9648 52.4832 50.6009C49.3031 54.237 44.9212 56.608 40.1377 57.2808C35.3542 57.9536 30.4882 56.8834 26.4285 54.2656L52.6449 24.2902ZM37.375 17.25C33.5293 17.254 29.7653 18.3597 26.5284 20.4364C23.2916 22.513 20.7176 25.4736 19.111 28.9677C17.5044 32.4617 16.9326 36.343 17.4633 40.1519C17.9939 43.9608 19.6048 47.5379 22.1052 50.4598L48.3395 20.4988C45.0786 18.3721 41.2681 17.243 37.375 17.25ZM74.75 37.375C74.75 44.7671 72.558 51.9931 68.4512 58.1394C64.3444 64.2857 58.5072 69.0762 51.6778 71.905C44.8484 74.7338 37.3336 75.474 30.0835 74.0318C22.8335 72.5897 16.1739 69.0301 10.9469 63.8031C5.71991 58.5761 2.16029 51.9165 0.718167 44.6665C-0.723956 37.4165 0.016194 29.9016 2.84502 23.0722C5.67384 16.2428 10.4643 10.4056 16.6106 6.29882C22.7569 2.19201 29.9829 0 37.375 0C47.2837 0.0123627 56.783 3.95404 63.7895 10.9605C70.796 17.967 74.7377 27.4663 74.75 37.375ZM63.25 37.375C63.2555 30.9135 60.8324 24.686 56.4614 19.9273L58.2188 17.7064C58.4945 17.4278 58.7104 17.0958 58.8531 16.7308C58.9959 16.3657 59.0625 15.9753 59.0488 15.5836C59.0351 15.1918 58.9415 14.807 58.7736 14.4528C58.6058 14.0986 58.3673 13.7824 58.0728 13.5237C57.7783 13.2651 57.434 13.0693 57.0611 12.9486C56.6882 12.8279 56.2945 12.7847 55.9043 12.8217C55.5141 12.8586 55.1355 12.975 54.7919 13.1637C54.4483 13.3523 54.1469 13.6092 53.9063 13.9186L52.1417 16.1395C46.9163 12.5394 40.5501 10.9849 34.2535 11.7716C27.9569 12.5584 22.1689 15.6315 17.99 20.4067C13.811 25.1818 11.5325 31.3262 11.5875 37.6715C11.6426 44.0168 14.0274 50.1207 18.2886 54.8227L16.5313 57.0436C16.0813 57.622 15.8692 58.3505 15.9384 59.0801C16.0075 59.8097 16.3526 60.4853 16.9033 60.9689C17.4539 61.4525 18.1684 61.7076 18.9008 61.6821C19.6332 61.6565 20.3282 61.3522 20.8438 60.8314L22.6083 58.6105C26.4867 61.3135 31.0319 62.9016 35.7497 63.2021C40.4675 63.5025 45.1774 62.5038 49.3674 60.3145C53.5573 58.1253 57.0668 54.8293 59.5145 50.7849C61.9621 46.7404 63.2541 42.1024 63.25 37.375Z" fill="#743EE0"/>
</svg>
