<svg width="14" height="8" viewBox="0 0 14 8" fill="none" xmlns="http://www.w3.org/2000/svg">
<path fill-rule="evenodd" clip-rule="evenodd" d="M2.374 1.916C3.382 2.883 4.89 3.829 6.946 3.829C9.002 3.829 10.51 2.883 11.518 1.916C11.9373 1.51169 12.314 1.06534 12.642 0.584C12.7637 0.406001 12.8772 0.222473 12.982 0.0339999L12.996 0.00599957L12.999 0L13.446 0.224L13.893 0.448L13.892 0.45L13.89 0.453L13.884 0.465C13.8516 0.527554 13.8176 0.589242 13.782 0.65C13.712 0.772 13.608 0.943 13.469 1.147C13.1016 1.68555 12.6797 2.18485 12.21 2.637C11.7946 3.03715 11.3396 3.39399 10.852 3.702L12.072 6.338L11.164 6.758L9.97 4.178C9.16318 4.54619 8.29528 4.76214 7.41 4.815V7.753H6.41V4.81C5.55686 4.75055 4.72114 4.53959 3.942 4.187L2.737 6.76L1.832 6.335L3.06 3.714C2.56444 3.40393 2.10261 3.04297 1.682 2.637C1.21197 2.1849 0.789743 1.6856 0.422 1.147C0.272743 0.926693 0.134571 0.699077 0.00800002 0.465L0.00199997 0.453L0 0.45V0.448L0.446 0.224L0.893 0L0.896 0.00599957L0.911 0.0339999C0.924333 0.0599999 0.946 0.0986663 0.976 0.15C1.3616 0.798075 1.83172 1.39195 2.374 1.916Z" fill="#1E1E1E"/>
</svg>
