<svg width="14" height="11" viewBox="0 0 14 11" fill="none" xmlns="http://www.w3.org/2000/svg">
<path d="M12.7264 4.627C12.9088 4.8826 13 5.011 13 5.2C13 5.3896 12.9088 5.5174 12.7264 5.773C11.9068 6.9226 9.8134 9.4 7 9.4C4.186 9.4 2.0932 6.922 1.2736 5.773C1.0912 5.5174 1 5.389 1 5.2C1 5.0104 1.0912 4.8826 1.2736 4.627C2.0932 3.4774 4.1866 1 7 1C9.814 1 11.9068 3.478 12.7264 4.627Z" stroke="#0D9BD8" stroke-width="1.5" stroke-linecap="round" stroke-linejoin="round"/>
<path d="M8.79995 5.1999C8.79995 4.72251 8.61031 4.26468 8.27274 3.92711C7.93518 3.58954 7.47734 3.3999 6.99995 3.3999C6.52256 3.3999 6.06472 3.58954 5.72716 3.92711C5.38959 4.26468 5.19995 4.72251 5.19995 5.1999C5.19995 5.67729 5.38959 6.13513 5.72716 6.47269C6.06472 6.81026 6.52256 6.9999 6.99995 6.9999C7.47734 6.9999 7.93518 6.81026 8.27274 6.47269C8.61031 6.13513 8.79995 5.67729 8.79995 5.1999Z" stroke="#0D9BD8" stroke-width="1.5" stroke-linecap="round" stroke-linejoin="round"/>
</svg>
