<svg width="20" height="19" viewBox="0 0 20 19" fill="none" xmlns="http://www.w3.org/2000/svg">
<path d="M12.5693 6.72266L12.6279 6.86133L12.7783 6.87402L19.3896 7.44727L14.3867 11.7861L14.2725 11.8848L14.3066 12.0312L15.7979 18.4805L10.1289 15.0605L10 14.9834L9.87109 15.0605L4.20117 18.4805L5.69336 12.0312L5.72754 11.8848L5.61328 11.7861L0.609375 7.44727L7.22168 6.87402L7.37207 6.86133L7.43066 6.72266L10 0.642578L12.5693 6.72266ZM10.2295 5.02734L9.75 5.125V13.0654L9.87012 13.1387L13.0195 15.0635L13.5264 15.373L13.3936 14.7939L12.6016 11.3408L15.2637 9.03906L15.71 8.65332L15.1221 8.60059L11.6211 8.28906L10.2295 5.02734Z" fill="#EBDF3D" stroke="black" stroke-width="0.5"/>
</svg>
