<svg width="20" height="22" viewBox="0 0 20 22" fill="none" xmlns="http://www.w3.org/2000/svg">
<path d="M8.85 22C8.35 22 7.88333 21.8877 7.45 21.663C7.01667 21.4383 6.65833 21.1173 6.375 20.7L0 11.375L0.6 10.8C0.916667 10.4833 1.29167 10.3 1.725 10.25C2.15833 10.2 2.55 10.3 2.9 10.55L5.8 12.575V3C5.8 2.71667 5.896 2.47934 6.088 2.288C6.28 2.09667 6.51733 2.00067 6.8 2C7.08267 1.99934 7.32033 2.09534 7.513 2.288C7.70567 2.48067 7.80133 2.718 7.8 3V16.425L4.1 13.825L8.025 19.55C8.10833 19.6833 8.225 19.7917 8.375 19.875C8.525 19.9583 8.68333 20 8.85 20H15.8C16.35 20 16.821 19.8043 17.213 19.413C17.605 19.0217 17.8007 18.5507 17.8 18V4C17.8 3.71667 17.896 3.47934 18.088 3.288C18.28 3.09667 18.5173 3.00067 18.8 3C19.0827 2.99934 19.3203 3.09534 19.513 3.288C19.7057 3.48067 19.8013 3.718 19.8 4V18C19.8 19.1 19.4083 20.0417 18.625 20.825C17.8417 21.6083 16.9 22 15.8 22H8.85ZM9.8 11V1C9.8 0.71667 9.896 0.479337 10.088 0.288003C10.28 0.0966701 10.5173 0.000670115 10.8 3.44828e-06C11.0827 -0.000663218 11.3203 0.0953368 11.513 0.288003C11.7057 0.48067 11.8013 0.718003 11.8 1V11H9.8ZM13.8 11V2C13.8 1.71667 13.896 1.47934 14.088 1.288C14.28 1.09667 14.5173 1.00067 14.8 1C15.0827 0.999337 15.3203 1.09534 15.513 1.288C15.7057 1.48067 15.8013 1.718 15.8 2V11H13.8Z" fill="#743EE0"/>
</svg>
