<svg width="62" height="48" viewBox="0 0 62 48" fill="none" xmlns="http://www.w3.org/2000/svg">
<path d="M0.5 0V4.5C0.5 16.95 7.13 27.84 17 33.9V48H62V42C62 34.02 46.01 30 38 30H37.25C23 30 11 18 11 4.5V0M38 0C34.8174 0 31.7652 1.26428 29.5147 3.51472C27.2643 5.76515 26 8.8174 26 12C26 15.1826 27.2643 18.2348 29.5147 20.4853C31.7652 22.7357 34.8174 24 38 24C41.1826 24 44.2348 22.7357 46.4853 20.4853C48.7357 18.2348 50 15.1826 50 12C50 8.8174 48.7357 5.76515 46.4853 3.51472C44.2348 1.26428 41.1826 0 38 0Z" fill="white"/>
</svg>
