<svg width="118" height="118" viewBox="0 0 118 118" fill="none" xmlns="http://www.w3.org/2000/svg">
<path d="M59 118C43.9222 118 30.7849 113.002 19.588 103.007C8.39111 93.0124 1.97104 80.5284 0.327777 65.5555H13.7667C15.2963 76.9185 20.3506 86.3148 28.9297 93.7444C37.5087 101.174 47.5321 104.889 59 104.889C71.7833 104.889 82.6284 100.438 91.5352 91.5352C100.442 82.6327 104.893 71.7877 104.889 59C104.885 46.2123 100.433 35.3694 91.5352 26.4713C82.6371 17.5733 71.7921 13.1198 59 13.1111C51.4611 13.1111 44.4139 14.8593 37.8583 18.3556C31.3028 21.8518 25.7852 26.6593 21.3056 32.7778H39.3333V45.8889H0V6.55555H13.1111V21.9611C18.6833 14.9685 25.4858 9.56018 33.5186 5.73611C41.5513 1.91204 50.0451 0 59 0C67.1944 0 74.871 1.55804 82.0297 4.67411C89.1883 7.79018 95.4161 11.9945 100.713 17.287C106.01 22.5795 110.216 28.8073 113.332 35.9703C116.449 43.1334 118.004 50.8099 118 59C117.996 67.1901 116.44 74.8666 113.332 82.0296C110.225 89.1927 106.019 95.4205 100.713 100.713C95.4074 106.005 89.1796 110.212 82.0297 113.332C74.8797 116.453 67.2032 118.009 59 118ZM77.3555 86.5333L52.4444 61.6222V26.2222H65.5555V56.3778L86.5333 77.3555L77.3555 86.5333Z" fill="#743EE0"/>
</svg>
