<svg width="14" height="17" viewBox="0 0 14 17" fill="none" xmlns="http://www.w3.org/2000/svg">
<path d="M6.33769 16.5751L6.13092 16.4342C5.09609 15.7055 4.13449 14.8768 3.25985 13.9598C1.72308 12.3395 0 9.91061 0 7.04386C0 3.51705 2.84415 0 7 0C11.1558 0 14 3.51705 14 7.04495C14 9.9117 12.2769 12.3406 10.7402 13.9587C9.86551 14.8757 8.90391 15.7045 7.86908 16.4332C7.78149 16.4946 7.71256 16.5415 7.66231 16.5741C7.44369 16.7204 7.22077 16.8591 7 17C6.77923 16.8591 6.55631 16.7204 6.33769 16.5751ZM7 9.21262C7.57124 9.21262 8.11907 8.98424 8.523 8.57773C8.92692 8.17121 9.15385 7.61985 9.15385 7.04495C9.15385 6.47004 8.92692 5.91869 8.523 5.51217C8.11907 5.10565 7.57124 4.87727 7 4.87727C6.42876 4.87727 5.88093 5.10565 5.477 5.51217C5.07308 5.91869 4.84615 6.47004 4.84615 7.04495C4.84615 7.61985 5.07308 8.17121 5.477 8.57773C5.88093 8.98424 6.42876 9.21262 7 9.21262Z" fill="#743EE0"/>
</svg>
