<svg width="16" height="18" viewBox="0 0 16 18" fill="none" xmlns="http://www.w3.org/2000/svg">
<path d="M6.76923 2.25H4.30769C3.742 2.25 3.18184 2.35185 2.65921 2.54972C2.13658 2.7476 1.6617 3.03764 1.26169 3.40327C0.861688 3.7689 0.544385 4.20296 0.327903 4.68068C0.111422 5.1584 0 5.67042 0 6.1875C0 6.70458 0.111422 7.2166 0.327903 7.69432C0.544385 8.17204 0.861688 8.6061 1.26169 8.97173C1.6617 9.33736 2.13658 9.6274 2.65921 9.82528C3.18184 10.0232 3.742 10.125 4.30769 10.125H6.76923V13.5H1.23077V15.75H6.76923V18H9.23077V15.75H11.6923C12.8348 15.75 13.9305 15.3352 14.7383 14.5967C15.5462 13.8583 16 12.8568 16 11.8125C16 10.7682 15.5462 9.76669 14.7383 9.02827C13.9305 8.28984 12.8348 7.875 11.6923 7.875H9.23077V4.5H14.7692V2.25H9.23077V0H6.76923V2.25ZM9.23077 10.125H11.6923C12.1819 10.125 12.6515 10.3028 12.9977 10.6193C13.344 10.9357 13.5385 11.3649 13.5385 11.8125C13.5385 12.2601 13.344 12.6893 12.9977 13.0057C12.6515 13.3222 12.1819 13.5 11.6923 13.5H9.23077V10.125ZM6.76923 7.875H4.30769C4.06525 7.875 3.82519 7.83135 3.6012 7.74655C3.37721 7.66174 3.1737 7.53744 3.00226 7.38074C2.83083 7.22404 2.69485 7.03802 2.60207 6.83328C2.50929 6.62854 2.46154 6.40911 2.46154 6.1875C2.46154 5.96589 2.50929 5.74646 2.60207 5.54172C2.69485 5.33698 2.83083 5.15096 3.00226 4.99426C3.1737 4.83756 3.37721 4.71326 3.6012 4.62845C3.82519 4.54365 4.06525 4.5 4.30769 4.5H6.76923V7.875Z" fill="#743EE0"/>
</svg>
