<svg width="108" height="108" viewBox="0 0 108 108" fill="none" xmlns="http://www.w3.org/2000/svg">
<path d="M68.2161 73.6519L101.408 106.843C102.132 107.567 103.114 107.974 104.138 107.974C105.163 107.974 106.145 107.567 106.869 106.843C107.593 106.119 108 105.137 108 104.113C108 103.089 107.593 102.107 106.869 101.383L6.59228 1.13078C6.23369 0.772282 5.80798 0.487901 5.33946 0.293881C4.87094 0.0998608 4.36879 3.77744e-09 3.86167 0C3.35455 -3.77744e-09 2.85239 0.0998608 2.38387 0.293881C1.91535 0.487901 1.48965 0.772282 1.13106 1.13078C0.772468 1.48929 0.488019 1.91489 0.293952 2.3833C0.0998848 2.8517 -3.77835e-09 3.35374 0 3.86074C3.77835e-09 4.36774 0.0998848 4.86977 0.293952 5.33818C0.488019 5.80658 0.772468 6.23219 1.13106 6.59069L12.3003 17.7419C10.8662 18.821 9.70281 20.2188 8.90222 21.825C8.10164 23.4311 7.68581 25.2014 7.68761 26.9959V34.7077C7.68761 44.3628 14.7995 52.3521 24.0558 53.7634C25.5653 59.7961 28.8634 65.2319 33.5174 69.3577C38.1714 73.4835 43.964 76.1067 50.1355 76.8831V84.834H38.5651C34.4736 84.834 30.5496 86.4589 27.6564 89.3514C24.7633 92.2439 23.1379 96.1669 23.1379 100.257V104.144C23.1379 105.167 23.5443 106.148 24.2676 106.871C24.9908 107.594 25.9718 108 26.9947 108H80.9899C82.0127 108 82.9937 107.594 83.717 106.871C84.4403 106.148 84.8466 105.167 84.8466 104.144V100.257C84.8466 96.1669 83.2213 92.2439 80.3281 89.3514C77.435 86.4589 73.511 84.834 69.4195 84.834H57.8491V76.8909C61.5516 76.4282 65.0459 75.3023 68.2161 73.6519ZM17.9235 23.3714L23.1456 28.5923V45.6275C20.8818 44.8345 18.9205 43.3576 17.533 41.4013C16.1456 39.445 15.4006 37.1059 15.4012 34.7077V26.9959C15.3998 26.2063 15.641 25.4352 16.0921 24.787C16.5432 24.1388 17.1825 23.6447 17.9235 23.3714ZM83.9287 53.7634C83.0766 57.1676 81.6497 60.4016 79.7094 63.3259L24.8041 8.44151C26.0954 5.90076 28.0656 3.76739 30.4961 2.27816C32.9265 0.78892 35.7222 0.00205171 38.5728 0.00487097H69.4272C73.5187 0.00487097 77.4427 1.62984 80.3358 4.5223C83.229 7.41476 84.8544 11.3378 84.8544 15.4283H88.7112C91.7798 15.4283 94.7228 16.6471 96.8927 18.8164C99.0625 20.9858 100.282 23.928 100.282 26.9959V34.7077C100.282 44.3551 93.1773 52.3444 83.9287 53.7634ZM84.8544 23.1401V45.6121C87.1099 44.8148 89.0629 43.3381 90.4443 41.3853C91.8257 39.4324 92.5676 37.0995 92.568 34.7077V26.9959C92.568 25.9733 92.1616 24.9925 91.4383 24.2694C90.715 23.5463 89.734 23.1401 88.7112 23.1401H84.8544Z" fill="#743EE0"/>
</svg>
