<svg width="21" height="21" viewBox="0 0 21 21" fill="none" xmlns="http://www.w3.org/2000/svg">
<path d="M4.00488 18.9807C4.00488 18.9807 2.69238 18.9807 2.69238 17.6682C2.69238 16.3557 4.00488 12.4182 10.5674 12.4182C17.1299 12.4182 18.4424 16.3557 18.4424 17.6682C18.4424 18.9807 17.1299 18.9807 17.1299 18.9807H4.00488ZM10.5674 11.1057C11.6117 11.1057 12.6132 10.6909 13.3516 9.95245C14.09 9.21402 14.5049 8.2125 14.5049 7.16821C14.5049 6.12392 14.09 5.1224 13.3516 4.38398C12.6132 3.64556 11.6117 3.23071 10.5674 3.23071C9.52309 3.23071 8.52157 3.64556 7.78315 4.38398C7.04473 5.1224 6.62988 6.12392 6.62988 7.16821C6.62988 8.2125 7.04473 9.21402 7.78315 9.95245C8.52157 10.6909 9.52309 11.1057 10.5674 11.1057Z" fill="#743EE0"/>
</svg>
