<svg width="59" height="59" viewBox="0 0 59 59" fill="none" xmlns="http://www.w3.org/2000/svg">
<g clip-path="url(#clip0_2157_771)">
<path d="M14.75 55C14.75 55 11.0625 55 11.0625 51.3125C11.0625 47.625 14.75 36.5625 29.5 36.5625C44.25 36.5625 47.9375 47.625 47.9375 51.3125C47.9375 55 44.25 55 44.25 55H14.75ZM29.5 33.0594C31.945 33.0594 34.2898 32.0881 36.0186 30.3593C37.7475 28.6304 38.7188 26.2856 38.7188 23.8406C38.7188 21.3957 37.7475 19.0508 36.0186 17.322C34.2898 15.5931 31.945 14.6219 29.5 14.6219C27.055 14.6219 24.7102 15.5931 22.9814 17.322C21.2525 19.0508 20.2812 21.3957 20.2812 23.8406C20.2812 26.2856 21.2525 28.6304 22.9814 30.3593C24.7102 32.0881 27.055 33.0594 29.5 33.0594Z" fill="white"/>
<path d="M7.375 -0.3125C5.41903 -0.3125 3.54317 0.464507 2.16009 1.84759C0.777007 3.23067 0 5.10653 0 7.0625L0 42.0938C0 43.5607 0.582755 44.9676 1.62007 46.0049C2.65738 47.0422 4.06427 47.625 5.53125 47.625H7.93919C8.71305 44.9163 10.0528 42.4026 11.8701 40.25H3.6875V7.0625C3.6875 6.08451 4.076 5.14658 4.76754 4.45504C5.45908 3.7635 6.39701 3.375 7.375 3.375H51.625C52.603 3.375 53.5409 3.7635 54.2325 4.45504C54.924 5.14658 55.3125 6.08451 55.3125 7.0625V40.25H47.1299C49.1728 42.6616 50.4118 45.3129 51.0608 47.625H53.4688C54.9357 47.625 56.3426 47.0422 57.3799 46.0049C58.4172 44.9676 59 43.5607 59 42.0938V7.0625C59 5.10653 58.223 3.23067 56.8399 1.84759C55.4568 0.464507 53.581 -0.3125 51.625 -0.3125H7.375Z" fill="white"/>
</g>
<defs>
<clipPath id="clip0_2157_771">
<rect width="59" height="59" fill="white"/>
</clipPath>
</defs>
</svg>
