<svg width="270" height="270" viewBox="0 0 270 270" fill="none" xmlns="http://www.w3.org/2000/svg">
<path fill-rule="evenodd" clip-rule="evenodd" d="M134.852 0C209.331 0 269.704 60.3734 269.704 134.852C269.704 209.331 209.331 269.704 134.852 269.704C60.3733 269.704 0 209.331 0 134.852C0 60.3734 60.3733 0 134.852 0ZM134.852 26.9704C106.24 26.9704 78.8 38.3365 58.5683 58.5683C38.3365 78.8001 26.9704 106.24 26.9704 134.852C26.9704 163.464 38.3365 190.904 58.5683 211.136C78.8 231.368 106.24 242.734 134.852 242.734C163.464 242.734 190.904 231.368 211.136 211.136C231.368 190.904 242.734 163.464 242.734 134.852C242.734 106.24 231.368 78.8001 211.136 58.5683C190.904 38.3365 163.464 26.9704 134.852 26.9704ZM134.852 148.337C151.938 148.337 167.581 154.716 179.461 165.194C182.144 167.562 183.776 170.898 183.998 174.469C184.221 178.04 183.016 181.553 180.648 184.235C178.28 186.918 174.944 188.549 171.373 188.772C167.802 188.995 164.289 187.789 161.607 185.422C154.218 178.905 144.704 175.309 134.852 175.308C124.59 175.308 115.231 179.111 108.098 185.422C106.769 186.593 105.223 187.492 103.548 188.066C101.873 188.64 100.101 188.878 98.3332 188.767C96.5656 188.656 94.8373 188.199 93.2467 187.42C91.6562 186.641 90.2346 185.557 89.0631 184.228C87.8917 182.9 86.9933 181.354 86.4193 179.679C85.8453 178.004 85.6069 176.232 85.7177 174.464C85.8285 172.697 86.2864 170.968 87.0652 169.378C87.844 167.787 88.9284 166.365 90.2566 165.194C102.573 154.332 118.43 148.338 134.852 148.337ZM87.6539 80.9113C93.0187 80.9113 98.1637 83.0425 101.957 86.8359C105.751 90.6294 107.882 95.7744 107.882 101.139C107.882 106.504 105.751 111.649 101.957 115.442C98.1637 119.236 93.0187 121.367 87.6539 121.367C82.2892 121.367 77.1441 119.236 73.3507 115.442C69.5572 111.649 67.4261 106.504 67.4261 101.139C67.4261 95.7744 69.5572 90.6294 73.3507 86.8359C77.1441 83.0425 82.2892 80.9113 87.6539 80.9113ZM182.05 80.9113C187.415 80.9113 192.56 83.0425 196.354 86.8359C200.147 90.6294 202.278 95.7744 202.278 101.139C202.278 106.504 200.147 111.649 196.354 115.442C192.56 119.236 187.415 121.367 182.05 121.367C176.686 121.367 171.541 119.236 167.747 115.442C163.954 111.649 161.823 106.504 161.823 101.139C161.823 95.7744 163.954 90.6294 167.747 86.8359C171.541 83.0425 176.686 80.9113 182.05 80.9113Z" fill="#743EE0"/>
</svg>
