<svg width="20" height="20" viewBox="0 0 20 20" fill="none" xmlns="http://www.w3.org/2000/svg">
<path d="M6.75362 1.16616C6.18162 0.356162 5.38962 -0.00883769 4.54962 0.00016231C3.75262 0.00816231 2.97662 0.349162 2.32862 0.803162C1.66768 1.26848 1.1041 1.85855 0.66962 2.54016C0.25962 3.18916 -0.0363803 3.95616 0.00361968 4.70516C0.19662 8.30816 2.22362 12.1582 5.07062 15.0072C7.91562 17.8532 11.7146 19.8312 15.5506 19.4532C16.3026 19.3792 17.0136 18.9962 17.5946 18.5082C18.1956 17.9992 18.6865 17.3731 19.0376 16.6682C19.3776 15.9762 19.5806 15.1782 19.4686 14.4012C19.3526 13.5912 18.8996 12.8672 18.0666 12.3872C17.894 12.287 17.7233 12.1837 17.5546 12.0772C17.4046 11.9842 17.2446 11.8832 17.0506 11.7672C16.6544 11.5228 16.2362 11.316 15.8016 11.1492C15.3546 10.9862 14.8436 10.8792 14.3116 10.9522C13.7606 11.0282 13.2486 11.2882 12.8056 11.7542C12.4646 12.1142 11.9626 12.2262 11.2566 12.0222C10.5386 11.8142 9.73062 11.2982 9.02862 10.6002C8.32662 9.90416 7.79562 9.09016 7.56862 8.35516C7.34462 7.62716 7.44362 7.09216 7.79362 6.72316C8.26662 6.22516 8.51862 5.67116 8.57162 5.08516C8.62362 4.51516 8.48162 3.97916 8.27862 3.51116C7.97462 2.81216 7.45862 2.11716 7.05462 1.57516C6.95305 1.43965 6.85304 1.30298 6.75462 1.16516" fill="#743EE0"/>
</svg>
